<mxfile host="app.diagrams.net" agent="Mozilla/5.0 (Macintosh; Intel Mac OS X 10_15_7) AppleWebKit/605.1.15 (KHTML, like Gecko) Version/17.5 Safari/605.1.15" version="24.7.5">
  <diagram name="페이지-1" id="Gi3Yo8XrRmWB8pIC-Bxq">
    <mxGraphModel dx="2390" dy="2376" grid="1" gridSize="10" guides="1" tooltips="1" connect="1" arrows="1" fold="1" page="1" pageScale="1" pageWidth="827" pageHeight="1169" math="0" shadow="0">
      <root>
        <mxCell id="0" />
        <mxCell id="1" parent="0" />
        <mxCell id="qINuYHvKmvZRoY0IgBBN-25" style="edgeStyle=orthogonalEdgeStyle;rounded=0;orthogonalLoop=1;jettySize=auto;html=1;exitX=0.5;exitY=1;exitDx=0;exitDy=0;endArrow=none;endFill=0;" edge="1" parent="1" source="qINuYHvKmvZRoY0IgBBN-1" target="qINuYHvKmvZRoY0IgBBN-24">
          <mxGeometry relative="1" as="geometry" />
        </mxCell>
        <mxCell id="qINuYHvKmvZRoY0IgBBN-1" value="Entity(Class)" style="rounded=1;whiteSpace=wrap;html=1;" vertex="1" parent="1">
          <mxGeometry x="690" width="120" height="30" as="geometry" />
        </mxCell>
        <mxCell id="qINuYHvKmvZRoY0IgBBN-3" value="" style="endArrow=none;html=1;rounded=0;exitX=1;exitY=0.5;exitDx=0;exitDy=0;entryX=0;entryY=0.5;entryDx=0;entryDy=0;" edge="1" parent="1" source="qINuYHvKmvZRoY0IgBBN-1" target="qINuYHvKmvZRoY0IgBBN-4">
          <mxGeometry width="50" height="50" relative="1" as="geometry">
            <mxPoint x="816" y="10" as="sourcePoint" />
            <mxPoint x="856" as="targetPoint" />
          </mxGeometry>
        </mxCell>
        <mxCell id="qINuYHvKmvZRoY0IgBBN-4" value="(float)armor, inDuration, attackSpeed" style="text;html=1;align=left;verticalAlign=middle;whiteSpace=wrap;rounded=0;" vertex="1" parent="1">
          <mxGeometry x="856" y="-30" width="220" height="30" as="geometry" />
        </mxCell>
        <mxCell id="qINuYHvKmvZRoY0IgBBN-5" value="" style="endArrow=none;html=1;rounded=0;exitX=1;exitY=0.5;exitDx=0;exitDy=0;entryX=0;entryY=0.5;entryDx=0;entryDy=0;" edge="1" parent="1" target="qINuYHvKmvZRoY0IgBBN-6">
          <mxGeometry width="50" height="50" relative="1" as="geometry">
            <mxPoint x="810" y="15" as="sourcePoint" />
            <mxPoint x="856" y="15" as="targetPoint" />
          </mxGeometry>
        </mxCell>
        <mxCell id="qINuYHvKmvZRoY0IgBBN-6" value="(int)direction" style="text;html=1;align=left;verticalAlign=middle;whiteSpace=wrap;rounded=0;" vertex="1" parent="1">
          <mxGeometry x="856" y="-10" width="80" height="30" as="geometry" />
        </mxCell>
        <mxCell id="qINuYHvKmvZRoY0IgBBN-7" value="(bool)isFlying, isInvincible, canFly, canMove, canAttack" style="text;html=1;align=left;verticalAlign=middle;whiteSpace=wrap;rounded=0;" vertex="1" parent="1">
          <mxGeometry x="856" y="10" width="300" height="30" as="geometry" />
        </mxCell>
        <mxCell id="qINuYHvKmvZRoY0IgBBN-8" value="health" style="text;html=1;align=left;verticalAlign=middle;whiteSpace=wrap;rounded=0;" vertex="1" parent="1">
          <mxGeometry x="856" y="30" width="40" height="30" as="geometry" />
        </mxCell>
        <mxCell id="qINuYHvKmvZRoY0IgBBN-9" value="" style="endArrow=none;html=1;rounded=0;exitX=1;exitY=0.5;exitDx=0;exitDy=0;entryX=0;entryY=0.5;entryDx=0;entryDy=0;" edge="1" parent="1" source="qINuYHvKmvZRoY0IgBBN-1" target="qINuYHvKmvZRoY0IgBBN-7">
          <mxGeometry width="50" height="50" relative="1" as="geometry">
            <mxPoint x="820" y="25" as="sourcePoint" />
            <mxPoint x="866" y="15" as="targetPoint" />
          </mxGeometry>
        </mxCell>
        <mxCell id="qINuYHvKmvZRoY0IgBBN-11" value="" style="endArrow=none;html=1;rounded=0;exitX=1;exitY=0.5;exitDx=0;exitDy=0;entryX=0;entryY=0.5;entryDx=0;entryDy=0;" edge="1" parent="1" source="qINuYHvKmvZRoY0IgBBN-1" target="qINuYHvKmvZRoY0IgBBN-8">
          <mxGeometry width="50" height="50" relative="1" as="geometry">
            <mxPoint x="820" y="25" as="sourcePoint" />
            <mxPoint x="866" y="35" as="targetPoint" />
          </mxGeometry>
        </mxCell>
        <mxCell id="qINuYHvKmvZRoY0IgBBN-12" value="dir(Class)" style="rounded=1;whiteSpace=wrap;html=1;" vertex="1" parent="1">
          <mxGeometry x="1236" y="-10" width="120" height="30" as="geometry" />
        </mxCell>
        <mxCell id="qINuYHvKmvZRoY0IgBBN-13" value="(const int)left, right" style="text;html=1;align=left;verticalAlign=middle;whiteSpace=wrap;rounded=0;" vertex="1" parent="1">
          <mxGeometry x="1396" y="-10" width="220" height="30" as="geometry" />
        </mxCell>
        <mxCell id="qINuYHvKmvZRoY0IgBBN-15" value="" style="endArrow=none;html=1;rounded=0;exitX=1;exitY=0.5;exitDx=0;exitDy=0;entryX=0;entryY=0.5;entryDx=0;entryDy=0;" edge="1" parent="1" source="qINuYHvKmvZRoY0IgBBN-12" target="qINuYHvKmvZRoY0IgBBN-13">
          <mxGeometry width="50" height="50" relative="1" as="geometry">
            <mxPoint x="820" y="25" as="sourcePoint" />
            <mxPoint x="866" y="-5" as="targetPoint" />
          </mxGeometry>
        </mxCell>
        <mxCell id="qINuYHvKmvZRoY0IgBBN-17" value="" style="endArrow=none;html=1;rounded=0;entryX=0;entryY=0.5;entryDx=0;entryDy=0;exitX=1;exitY=0.5;exitDx=0;exitDy=0;" edge="1" parent="1" source="qINuYHvKmvZRoY0IgBBN-6" target="qINuYHvKmvZRoY0IgBBN-12">
          <mxGeometry width="50" height="50" relative="1" as="geometry">
            <mxPoint x="1086" y="5" as="sourcePoint" />
            <mxPoint x="976" y="4.58" as="targetPoint" />
          </mxGeometry>
        </mxCell>
        <mxCell id="qINuYHvKmvZRoY0IgBBN-18" value="Health(Class)" style="rounded=1;whiteSpace=wrap;html=1;" vertex="1" parent="1">
          <mxGeometry x="1236" y="30" width="120" height="30" as="geometry" />
        </mxCell>
        <mxCell id="qINuYHvKmvZRoY0IgBBN-19" value="" style="endArrow=none;html=1;rounded=0;entryX=0;entryY=0.5;entryDx=0;entryDy=0;" edge="1" parent="1" source="qINuYHvKmvZRoY0IgBBN-8">
          <mxGeometry width="50" height="50" relative="1" as="geometry">
            <mxPoint x="936" y="44.58" as="sourcePoint" />
            <mxPoint x="1236" y="44.58" as="targetPoint" />
          </mxGeometry>
        </mxCell>
        <mxCell id="qINuYHvKmvZRoY0IgBBN-20" value="(float)health, maxHealth, barrier" style="text;html=1;align=left;verticalAlign=middle;whiteSpace=wrap;rounded=0;" vertex="1" parent="1">
          <mxGeometry x="1396" y="20" width="184" height="30" as="geometry" />
        </mxCell>
        <mxCell id="qINuYHvKmvZRoY0IgBBN-21" value="" style="endArrow=none;html=1;rounded=0;exitX=1;exitY=0.5;exitDx=0;exitDy=0;entryX=0;entryY=0.5;entryDx=0;entryDy=0;" edge="1" parent="1" target="qINuYHvKmvZRoY0IgBBN-20">
          <mxGeometry width="50" height="50" relative="1" as="geometry">
            <mxPoint x="1356" y="45" as="sourcePoint" />
            <mxPoint x="866" y="35" as="targetPoint" />
          </mxGeometry>
        </mxCell>
        <mxCell id="qINuYHvKmvZRoY0IgBBN-65" style="edgeStyle=orthogonalEdgeStyle;rounded=0;orthogonalLoop=1;jettySize=auto;html=1;exitX=0.5;exitY=1;exitDx=0;exitDy=0;entryX=0.5;entryY=0;entryDx=0;entryDy=0;endArrow=none;endFill=0;" edge="1" parent="1" source="qINuYHvKmvZRoY0IgBBN-22" target="qINuYHvKmvZRoY0IgBBN-63">
          <mxGeometry relative="1" as="geometry" />
        </mxCell>
        <mxCell id="qINuYHvKmvZRoY0IgBBN-22" value="PlayerValues(Class)" style="rounded=1;whiteSpace=wrap;html=1;" vertex="1" parent="1">
          <mxGeometry x="80" y="160" width="120" height="30" as="geometry" />
        </mxCell>
        <mxCell id="qINuYHvKmvZRoY0IgBBN-23" value="" style="endArrow=none;html=1;rounded=0;entryX=0;entryY=0.5;entryDx=0;entryDy=0;exitX=1;exitY=0.5;exitDx=0;exitDy=0;" edge="1" parent="1" target="qINuYHvKmvZRoY0IgBBN-24" source="qINuYHvKmvZRoY0IgBBN-22">
          <mxGeometry width="50" height="50" relative="1" as="geometry">
            <mxPoint x="200" y="160" as="sourcePoint" />
            <mxPoint x="246" y="140" as="targetPoint" />
          </mxGeometry>
        </mxCell>
        <mxCell id="qINuYHvKmvZRoY0IgBBN-24" value="player" style="text;html=1;align=left;verticalAlign=middle;whiteSpace=wrap;rounded=0;" vertex="1" parent="1">
          <mxGeometry x="246" y="110" width="44" height="30" as="geometry" />
        </mxCell>
        <mxCell id="qINuYHvKmvZRoY0IgBBN-35" value="" style="endArrow=none;html=1;rounded=0;exitX=1;exitY=0.5;exitDx=0;exitDy=0;entryX=0;entryY=0.5;entryDx=0;entryDy=0;" edge="1" parent="1" target="qINuYHvKmvZRoY0IgBBN-36" source="qINuYHvKmvZRoY0IgBBN-22">
          <mxGeometry width="50" height="50" relative="1" as="geometry">
            <mxPoint x="200" y="155" as="sourcePoint" />
            <mxPoint x="246" y="155" as="targetPoint" />
          </mxGeometry>
        </mxCell>
        <mxCell id="qINuYHvKmvZRoY0IgBBN-36" value="direction" style="text;html=1;align=left;verticalAlign=middle;whiteSpace=wrap;rounded=0;" vertex="1" parent="1">
          <mxGeometry x="246" y="130" width="74" height="30" as="geometry" />
        </mxCell>
        <mxCell id="qINuYHvKmvZRoY0IgBBN-37" value="isFlying, isInvincible, canFly, canMove, canAttack" style="text;html=1;align=left;verticalAlign=middle;whiteSpace=wrap;rounded=0;" vertex="1" parent="1">
          <mxGeometry x="246" y="150" width="274" height="30" as="geometry" />
        </mxCell>
        <mxCell id="qINuYHvKmvZRoY0IgBBN-38" value="health" style="text;html=1;align=left;verticalAlign=middle;whiteSpace=wrap;rounded=0;" vertex="1" parent="1">
          <mxGeometry x="246" y="170" width="44" height="30" as="geometry" />
        </mxCell>
        <mxCell id="qINuYHvKmvZRoY0IgBBN-39" value="" style="endArrow=none;html=1;rounded=0;exitX=1;exitY=0.5;exitDx=0;exitDy=0;entryX=0;entryY=0.5;entryDx=0;entryDy=0;" edge="1" parent="1" target="qINuYHvKmvZRoY0IgBBN-37" source="qINuYHvKmvZRoY0IgBBN-22">
          <mxGeometry width="50" height="50" relative="1" as="geometry">
            <mxPoint x="200" y="155" as="sourcePoint" />
            <mxPoint x="256" y="155" as="targetPoint" />
          </mxGeometry>
        </mxCell>
        <mxCell id="qINuYHvKmvZRoY0IgBBN-40" value="" style="endArrow=none;html=1;rounded=0;exitX=1;exitY=0.5;exitDx=0;exitDy=0;entryX=0;entryY=0.5;entryDx=0;entryDy=0;" edge="1" parent="1" target="qINuYHvKmvZRoY0IgBBN-38" source="qINuYHvKmvZRoY0IgBBN-22">
          <mxGeometry width="50" height="50" relative="1" as="geometry">
            <mxPoint x="200" y="155" as="sourcePoint" />
            <mxPoint x="256" y="175" as="targetPoint" />
          </mxGeometry>
        </mxCell>
        <mxCell id="qINuYHvKmvZRoY0IgBBN-41" value="" style="endArrow=none;startArrow=classic;html=1;rounded=0;exitX=1;exitY=0.5;exitDx=0;exitDy=0;endFill=0;entryX=1.001;entryY=0.679;entryDx=0;entryDy=0;entryPerimeter=0;" edge="1" parent="1" source="qINuYHvKmvZRoY0IgBBN-36" target="qINuYHvKmvZRoY0IgBBN-24">
          <mxGeometry width="50" height="50" relative="1" as="geometry">
            <mxPoint x="580" y="190" as="sourcePoint" />
            <mxPoint x="300" y="130" as="targetPoint" />
            <Array as="points">
              <mxPoint x="440" y="145" />
              <mxPoint x="440" y="130" />
            </Array>
          </mxGeometry>
        </mxCell>
        <mxCell id="qINuYHvKmvZRoY0IgBBN-44" value="" style="endArrow=none;startArrow=classic;html=1;rounded=0;exitX=1;exitY=0.5;exitDx=0;exitDy=0;entryX=1;entryY=0.5;entryDx=0;entryDy=0;endFill=0;" edge="1" parent="1" source="qINuYHvKmvZRoY0IgBBN-37" target="qINuYHvKmvZRoY0IgBBN-24">
          <mxGeometry width="50" height="50" relative="1" as="geometry">
            <mxPoint x="330" y="155" as="sourcePoint" />
            <mxPoint x="330" y="135" as="targetPoint" />
            <Array as="points">
              <mxPoint x="530" y="165" />
              <mxPoint x="530" y="125" />
            </Array>
          </mxGeometry>
        </mxCell>
        <mxCell id="qINuYHvKmvZRoY0IgBBN-46" value="" style="endArrow=none;startArrow=classic;html=1;rounded=0;exitX=1;exitY=0.5;exitDx=0;exitDy=0;entryX=0.99;entryY=0.362;entryDx=0;entryDy=0;entryPerimeter=0;endFill=0;" edge="1" parent="1" source="qINuYHvKmvZRoY0IgBBN-38" target="qINuYHvKmvZRoY0IgBBN-24">
          <mxGeometry width="50" height="50" relative="1" as="geometry">
            <mxPoint x="520" y="165" as="sourcePoint" />
            <mxPoint x="320" y="125" as="targetPoint" />
            <Array as="points">
              <mxPoint x="550" y="185" />
              <mxPoint x="550" y="120" />
            </Array>
          </mxGeometry>
        </mxCell>
        <mxCell id="qINuYHvKmvZRoY0IgBBN-47" value="(float)health, maxHealth, barrier" style="text;html=1;align=left;verticalAlign=middle;whiteSpace=wrap;rounded=0;" vertex="1" parent="1">
          <mxGeometry x="246" y="190" width="174" height="30" as="geometry" />
        </mxCell>
        <mxCell id="qINuYHvKmvZRoY0IgBBN-48" value="" style="endArrow=none;html=1;rounded=0;exitX=1;exitY=0.5;exitDx=0;exitDy=0;entryX=0;entryY=0.5;entryDx=0;entryDy=0;" edge="1" parent="1" target="qINuYHvKmvZRoY0IgBBN-47" source="qINuYHvKmvZRoY0IgBBN-22">
          <mxGeometry width="50" height="50" relative="1" as="geometry">
            <mxPoint x="200" y="180" as="sourcePoint" />
            <mxPoint x="256" y="190" as="targetPoint" />
          </mxGeometry>
        </mxCell>
        <mxCell id="qINuYHvKmvZRoY0IgBBN-49" value="damage" style="text;html=1;align=left;verticalAlign=middle;whiteSpace=wrap;rounded=0;" vertex="1" parent="1">
          <mxGeometry x="246" y="215" width="54" height="30" as="geometry" />
        </mxCell>
        <mxCell id="qINuYHvKmvZRoY0IgBBN-50" value="" style="endArrow=none;html=1;rounded=0;entryX=0;entryY=0.5;entryDx=0;entryDy=0;exitX=1;exitY=0.5;exitDx=0;exitDy=0;" edge="1" parent="1" target="qINuYHvKmvZRoY0IgBBN-49" source="qINuYHvKmvZRoY0IgBBN-22">
          <mxGeometry width="50" height="50" relative="1" as="geometry">
            <mxPoint x="200" y="170" as="sourcePoint" />
            <mxPoint x="256" y="215" as="targetPoint" />
          </mxGeometry>
        </mxCell>
        <mxCell id="qINuYHvKmvZRoY0IgBBN-51" value="Damage(Class)" style="rounded=1;whiteSpace=wrap;html=1;" vertex="1" parent="1">
          <mxGeometry x="676" y="215" width="120" height="30" as="geometry" />
        </mxCell>
        <mxCell id="qINuYHvKmvZRoY0IgBBN-53" value="" style="endArrow=none;html=1;rounded=0;exitX=1;exitY=0.5;exitDx=0;exitDy=0;entryX=0;entryY=0.5;entryDx=0;entryDy=0;" edge="1" parent="1" target="qINuYHvKmvZRoY0IgBBN-54">
          <mxGeometry width="50" height="50" relative="1" as="geometry">
            <mxPoint x="796" y="230" as="sourcePoint" />
            <mxPoint x="842" y="230" as="targetPoint" />
          </mxGeometry>
        </mxCell>
        <mxCell id="qINuYHvKmvZRoY0IgBBN-54" value="(int)minDamage, maxDamage" style="text;html=1;align=left;verticalAlign=middle;whiteSpace=wrap;rounded=0;" vertex="1" parent="1">
          <mxGeometry x="842" y="185" width="174" height="30" as="geometry" />
        </mxCell>
        <mxCell id="qINuYHvKmvZRoY0IgBBN-55" value="" style="endArrow=none;html=1;rounded=0;exitX=1;exitY=0.5;exitDx=0;exitDy=0;entryX=0;entryY=0.5;entryDx=0;entryDy=0;" edge="1" parent="1" target="qINuYHvKmvZRoY0IgBBN-56" source="qINuYHvKmvZRoY0IgBBN-51">
          <mxGeometry width="50" height="50" relative="1" as="geometry">
            <mxPoint x="796" y="265" as="sourcePoint" />
            <mxPoint x="842" y="250" as="targetPoint" />
          </mxGeometry>
        </mxCell>
        <mxCell id="qINuYHvKmvZRoY0IgBBN-56" value="(float)critChance, critMultiplier, armorPenetration" style="text;html=1;align=left;verticalAlign=middle;whiteSpace=wrap;rounded=0;" vertex="1" parent="1">
          <mxGeometry x="842" y="205" width="274" height="30" as="geometry" />
        </mxCell>
        <mxCell id="qINuYHvKmvZRoY0IgBBN-57" value="(bool)self, ignoreTerrain, isProjectile" style="text;html=1;align=left;verticalAlign=middle;whiteSpace=wrap;rounded=0;" vertex="1" parent="1">
          <mxGeometry x="842" y="225" width="194" height="30" as="geometry" />
        </mxCell>
        <mxCell id="qINuYHvKmvZRoY0IgBBN-58" value="" style="endArrow=none;html=1;rounded=0;exitX=1;exitY=0.5;exitDx=0;exitDy=0;entryX=0;entryY=0.5;entryDx=0;entryDy=0;" edge="1" parent="1" source="qINuYHvKmvZRoY0IgBBN-51" target="qINuYHvKmvZRoY0IgBBN-57">
          <mxGeometry width="50" height="50" relative="1" as="geometry">
            <mxPoint x="806" y="240" as="sourcePoint" />
            <mxPoint x="852" y="230" as="targetPoint" />
          </mxGeometry>
        </mxCell>
        <mxCell id="qINuYHvKmvZRoY0IgBBN-59" value="(GameObject)prefab" style="text;html=1;align=left;verticalAlign=middle;whiteSpace=wrap;rounded=0;" vertex="1" parent="1">
          <mxGeometry x="842" y="245" width="194" height="30" as="geometry" />
        </mxCell>
        <mxCell id="qINuYHvKmvZRoY0IgBBN-60" value="" style="endArrow=none;html=1;rounded=0;exitX=1;exitY=0.5;exitDx=0;exitDy=0;entryX=0;entryY=0.5;entryDx=0;entryDy=0;" edge="1" parent="1" target="qINuYHvKmvZRoY0IgBBN-59" source="qINuYHvKmvZRoY0IgBBN-51">
          <mxGeometry width="50" height="50" relative="1" as="geometry">
            <mxPoint x="796" y="250" as="sourcePoint" />
            <mxPoint x="852" y="250" as="targetPoint" />
          </mxGeometry>
        </mxCell>
        <mxCell id="qINuYHvKmvZRoY0IgBBN-61" value="" style="endArrow=none;html=1;rounded=0;exitX=0;exitY=0.5;exitDx=0;exitDy=0;entryX=1;entryY=0.5;entryDx=0;entryDy=0;" edge="1" parent="1" source="qINuYHvKmvZRoY0IgBBN-51" target="qINuYHvKmvZRoY0IgBBN-49">
          <mxGeometry width="50" height="50" relative="1" as="geometry">
            <mxPoint x="806" y="240" as="sourcePoint" />
            <mxPoint x="852" y="270" as="targetPoint" />
          </mxGeometry>
        </mxCell>
        <mxCell id="qINuYHvKmvZRoY0IgBBN-62" value="PlayerController(Class)" style="rounded=1;whiteSpace=wrap;html=1;" vertex="1" parent="1">
          <mxGeometry x="70" y="400" width="150" height="30" as="geometry" />
        </mxCell>
        <mxCell id="qINuYHvKmvZRoY0IgBBN-63" value="playerValues" style="text;html=1;align=left;verticalAlign=middle;whiteSpace=wrap;rounded=0;" vertex="1" parent="1">
          <mxGeometry x="250" y="330" width="90" height="30" as="geometry" />
        </mxCell>
        <mxCell id="qINuYHvKmvZRoY0IgBBN-64" value="" style="endArrow=none;html=1;rounded=0;entryX=0;entryY=0.5;entryDx=0;entryDy=0;" edge="1" parent="1" target="qINuYHvKmvZRoY0IgBBN-63">
          <mxGeometry width="50" height="50" relative="1" as="geometry">
            <mxPoint x="220" y="410" as="sourcePoint" />
            <mxPoint x="256" y="135" as="targetPoint" />
          </mxGeometry>
        </mxCell>
        <mxCell id="qINuYHvKmvZRoY0IgBBN-66" value="(static)movementController" style="text;html=1;align=left;verticalAlign=middle;whiteSpace=wrap;rounded=0;" vertex="1" parent="1">
          <mxGeometry x="250" y="350" width="150" height="30" as="geometry" />
        </mxCell>
        <mxCell id="qINuYHvKmvZRoY0IgBBN-67" value="" style="endArrow=none;html=1;rounded=0;entryX=0;entryY=0.5;entryDx=0;entryDy=0;exitX=1;exitY=0.5;exitDx=0;exitDy=0;" edge="1" parent="1" target="qINuYHvKmvZRoY0IgBBN-66" source="qINuYHvKmvZRoY0IgBBN-62">
          <mxGeometry width="50" height="50" relative="1" as="geometry">
            <mxPoint x="220" y="430" as="sourcePoint" />
            <mxPoint x="256" y="157" as="targetPoint" />
          </mxGeometry>
        </mxCell>
        <mxCell id="qINuYHvKmvZRoY0IgBBN-69" value="(static)damage" style="text;html=1;align=left;verticalAlign=middle;whiteSpace=wrap;rounded=0;" vertex="1" parent="1">
          <mxGeometry x="250" y="370" width="150" height="30" as="geometry" />
        </mxCell>
        <mxCell id="qINuYHvKmvZRoY0IgBBN-70" value="" style="endArrow=none;html=1;rounded=0;entryX=0;entryY=0.5;entryDx=0;entryDy=0;exitX=1;exitY=0.5;exitDx=0;exitDy=0;" edge="1" parent="1" target="qINuYHvKmvZRoY0IgBBN-69" source="qINuYHvKmvZRoY0IgBBN-62">
          <mxGeometry width="50" height="50" relative="1" as="geometry">
            <mxPoint x="220" y="435" as="sourcePoint" />
            <mxPoint x="256" y="177" as="targetPoint" />
          </mxGeometry>
        </mxCell>
        <mxCell id="qINuYHvKmvZRoY0IgBBN-72" value="Health" style="swimlane;fontStyle=0;childLayout=stackLayout;horizontal=1;startSize=30;horizontalStack=0;resizeParent=1;resizeParentMax=0;resizeLast=0;collapsible=1;marginBottom=0;whiteSpace=wrap;html=1;" vertex="1" parent="1">
          <mxGeometry x="1400" y="60" width="140" height="120" as="geometry" />
        </mxCell>
        <mxCell id="qINuYHvKmvZRoY0IgBBN-73" value="health" style="text;strokeColor=none;fillColor=none;align=left;verticalAlign=middle;spacingLeft=4;spacingRight=4;overflow=hidden;points=[[0,0.5],[1,0.5]];portConstraint=eastwest;rotatable=0;whiteSpace=wrap;html=1;" vertex="1" parent="qINuYHvKmvZRoY0IgBBN-72">
          <mxGeometry y="30" width="140" height="30" as="geometry" />
        </mxCell>
        <mxCell id="qINuYHvKmvZRoY0IgBBN-74" value="maxHealth" style="text;strokeColor=none;fillColor=none;align=left;verticalAlign=middle;spacingLeft=4;spacingRight=4;overflow=hidden;points=[[0,0.5],[1,0.5]];portConstraint=eastwest;rotatable=0;whiteSpace=wrap;html=1;" vertex="1" parent="qINuYHvKmvZRoY0IgBBN-72">
          <mxGeometry y="60" width="140" height="30" as="geometry" />
        </mxCell>
        <mxCell id="qINuYHvKmvZRoY0IgBBN-75" value="barrier" style="text;strokeColor=none;fillColor=none;align=left;verticalAlign=middle;spacingLeft=4;spacingRight=4;overflow=hidden;points=[[0,0.5],[1,0.5]];portConstraint=eastwest;rotatable=0;whiteSpace=wrap;html=1;" vertex="1" parent="qINuYHvKmvZRoY0IgBBN-72">
          <mxGeometry y="90" width="140" height="30" as="geometry" />
        </mxCell>
        <mxCell id="qINuYHvKmvZRoY0IgBBN-76" value="" style="endArrow=none;html=1;rounded=0;exitX=1;exitY=0.5;exitDx=0;exitDy=0;entryX=0;entryY=0.5;entryDx=0;entryDy=0;" edge="1" parent="1" source="qINuYHvKmvZRoY0IgBBN-18" target="qINuYHvKmvZRoY0IgBBN-74">
          <mxGeometry width="50" height="50" relative="1" as="geometry">
            <mxPoint x="1366" y="55" as="sourcePoint" />
            <mxPoint x="1406" y="45" as="targetPoint" />
          </mxGeometry>
        </mxCell>
        <mxCell id="qINuYHvKmvZRoY0IgBBN-77" style="edgeStyle=orthogonalEdgeStyle;rounded=0;orthogonalLoop=1;jettySize=auto;html=1;exitX=1;exitY=0.5;exitDx=0;exitDy=0;entryX=1;entryY=0.5;entryDx=0;entryDy=0;" edge="1" parent="1" source="qINuYHvKmvZRoY0IgBBN-74" target="qINuYHvKmvZRoY0IgBBN-20">
          <mxGeometry relative="1" as="geometry" />
        </mxCell>
        <mxCell id="qINuYHvKmvZRoY0IgBBN-81" value="Awake(Function)" style="swimlane;fontStyle=0;childLayout=stackLayout;horizontal=1;startSize=30;horizontalStack=0;resizeParent=1;resizeParentMax=0;resizeLast=0;collapsible=1;marginBottom=0;whiteSpace=wrap;html=1;" vertex="1" parent="1">
          <mxGeometry x="470" y="430" width="140" height="360" as="geometry">
            <mxRectangle x="470" y="430" width="130" height="30" as="alternateBounds" />
          </mxGeometry>
        </mxCell>
        <mxCell id="qINuYHvKmvZRoY0IgBBN-82" value="playerValues.player" style="text;strokeColor=none;fillColor=none;align=left;verticalAlign=middle;spacingLeft=4;spacingRight=4;overflow=hidden;points=[[0,0.5],[1,0.5]];portConstraint=eastwest;rotatable=0;whiteSpace=wrap;html=1;" vertex="1" parent="qINuYHvKmvZRoY0IgBBN-81">
          <mxGeometry y="30" width="140" height="30" as="geometry" />
        </mxCell>
        <mxCell id="qINuYHvKmvZRoY0IgBBN-83" value="playerValues.direction" style="text;strokeColor=none;fillColor=none;align=left;verticalAlign=middle;spacingLeft=4;spacingRight=4;overflow=hidden;points=[[0,0.5],[1,0.5]];portConstraint=eastwest;rotatable=0;whiteSpace=wrap;html=1;" vertex="1" parent="qINuYHvKmvZRoY0IgBBN-81">
          <mxGeometry y="60" width="140" height="30" as="geometry" />
        </mxCell>
        <mxCell id="qINuYHvKmvZRoY0IgBBN-84" value="playerValues.canMove" style="text;strokeColor=none;fillColor=none;align=left;verticalAlign=middle;spacingLeft=4;spacingRight=4;overflow=hidden;points=[[0,0.5],[1,0.5]];portConstraint=eastwest;rotatable=0;whiteSpace=wrap;html=1;" vertex="1" parent="qINuYHvKmvZRoY0IgBBN-81">
          <mxGeometry y="90" width="140" height="30" as="geometry" />
        </mxCell>
        <mxCell id="qINuYHvKmvZRoY0IgBBN-96" value="playerValues.canFly" style="text;strokeColor=none;fillColor=none;align=left;verticalAlign=middle;spacingLeft=4;spacingRight=4;overflow=hidden;points=[[0,0.5],[1,0.5]];portConstraint=eastwest;rotatable=0;whiteSpace=wrap;html=1;" vertex="1" parent="qINuYHvKmvZRoY0IgBBN-81">
          <mxGeometry y="120" width="140" height="30" as="geometry" />
        </mxCell>
        <mxCell id="qINuYHvKmvZRoY0IgBBN-95" value="playerValues.canAttack" style="text;strokeColor=none;fillColor=none;align=left;verticalAlign=middle;spacingLeft=4;spacingRight=4;overflow=hidden;points=[[0,0.5],[1,0.5]];portConstraint=eastwest;rotatable=0;whiteSpace=wrap;html=1;" vertex="1" parent="qINuYHvKmvZRoY0IgBBN-81">
          <mxGeometry y="150" width="140" height="30" as="geometry" />
        </mxCell>
        <mxCell id="qINuYHvKmvZRoY0IgBBN-94" value="playerValues.isFlying" style="text;strokeColor=none;fillColor=none;align=left;verticalAlign=middle;spacingLeft=4;spacingRight=4;overflow=hidden;points=[[0,0.5],[1,0.5]];portConstraint=eastwest;rotatable=0;whiteSpace=wrap;html=1;" vertex="1" parent="qINuYHvKmvZRoY0IgBBN-81">
          <mxGeometry y="180" width="140" height="30" as="geometry" />
        </mxCell>
        <mxCell id="qINuYHvKmvZRoY0IgBBN-93" value="playerValues.isInvincible" style="text;strokeColor=none;fillColor=none;align=left;verticalAlign=middle;spacingLeft=4;spacingRight=4;overflow=hidden;points=[[0,0.5],[1,0.5]];portConstraint=eastwest;rotatable=0;whiteSpace=wrap;html=1;" vertex="1" parent="qINuYHvKmvZRoY0IgBBN-81">
          <mxGeometry y="210" width="140" height="30" as="geometry" />
        </mxCell>
        <mxCell id="qINuYHvKmvZRoY0IgBBN-92" value="playerValues.damage" style="text;strokeColor=none;fillColor=none;align=left;verticalAlign=middle;spacingLeft=4;spacingRight=4;overflow=hidden;points=[[0,0.5],[1,0.5]];portConstraint=eastwest;rotatable=0;whiteSpace=wrap;html=1;" vertex="1" parent="qINuYHvKmvZRoY0IgBBN-81">
          <mxGeometry y="240" width="140" height="30" as="geometry" />
        </mxCell>
        <mxCell id="qINuYHvKmvZRoY0IgBBN-98" value="playerValues.health" style="text;strokeColor=none;fillColor=none;align=left;verticalAlign=middle;spacingLeft=4;spacingRight=4;overflow=hidden;points=[[0,0.5],[1,0.5]];portConstraint=eastwest;rotatable=0;whiteSpace=wrap;html=1;" vertex="1" parent="qINuYHvKmvZRoY0IgBBN-81">
          <mxGeometry y="270" width="140" height="30" as="geometry" />
        </mxCell>
        <mxCell id="qINuYHvKmvZRoY0IgBBN-97" value="playerValues.maxHealth" style="text;strokeColor=none;fillColor=none;align=left;verticalAlign=middle;spacingLeft=4;spacingRight=4;overflow=hidden;points=[[0,0.5],[1,0.5]];portConstraint=eastwest;rotatable=0;whiteSpace=wrap;html=1;" vertex="1" parent="qINuYHvKmvZRoY0IgBBN-81">
          <mxGeometry y="300" width="140" height="30" as="geometry" />
        </mxCell>
        <mxCell id="qINuYHvKmvZRoY0IgBBN-99" value="playerValues.barrier" style="text;strokeColor=none;fillColor=none;align=left;verticalAlign=middle;spacingLeft=4;spacingRight=4;overflow=hidden;points=[[0,0.5],[1,0.5]];portConstraint=eastwest;rotatable=0;whiteSpace=wrap;html=1;" vertex="1" parent="qINuYHvKmvZRoY0IgBBN-81">
          <mxGeometry y="330" width="140" height="30" as="geometry" />
        </mxCell>
        <mxCell id="qINuYHvKmvZRoY0IgBBN-85" value="" style="endArrow=none;html=1;rounded=0;exitX=1;exitY=0.5;exitDx=0;exitDy=0;entryX=0;entryY=0.5;entryDx=0;entryDy=0;" edge="1" parent="1" target="qINuYHvKmvZRoY0IgBBN-83">
          <mxGeometry width="50" height="50" relative="1" as="geometry">
            <mxPoint x="220" y="410" as="sourcePoint" />
            <mxPoint x="270" y="410" as="targetPoint" />
            <Array as="points">
              <mxPoint x="260" y="505" />
            </Array>
          </mxGeometry>
        </mxCell>
        <mxCell id="qINuYHvKmvZRoY0IgBBN-133" style="edgeStyle=orthogonalEdgeStyle;rounded=0;orthogonalLoop=1;jettySize=auto;html=1;entryX=0;entryY=0.5;entryDx=0;entryDy=0;startArrow=classic;startFill=1;endArrow=none;endFill=0;" edge="1" parent="1" source="qINuYHvKmvZRoY0IgBBN-86" target="qINuYHvKmvZRoY0IgBBN-122">
          <mxGeometry relative="1" as="geometry" />
        </mxCell>
        <mxCell id="qINuYHvKmvZRoY0IgBBN-86" value="(static)player" style="text;html=1;align=left;verticalAlign=middle;whiteSpace=wrap;rounded=0;" vertex="1" parent="1">
          <mxGeometry x="250" y="390" width="80" height="30" as="geometry" />
        </mxCell>
        <mxCell id="qINuYHvKmvZRoY0IgBBN-87" value="" style="endArrow=none;html=1;rounded=0;entryX=0;entryY=0.5;entryDx=0;entryDy=0;exitX=1;exitY=0.5;exitDx=0;exitDy=0;" edge="1" parent="1" source="qINuYHvKmvZRoY0IgBBN-62" target="qINuYHvKmvZRoY0IgBBN-86">
          <mxGeometry width="50" height="50" relative="1" as="geometry">
            <mxPoint x="230" y="425" as="sourcePoint" />
            <mxPoint x="260" y="395" as="targetPoint" />
          </mxGeometry>
        </mxCell>
        <mxCell id="qINuYHvKmvZRoY0IgBBN-88" style="edgeStyle=orthogonalEdgeStyle;rounded=0;orthogonalLoop=1;jettySize=auto;html=1;entryX=0;entryY=0.5;entryDx=0;entryDy=0;exitX=1;exitY=0.5;exitDx=0;exitDy=0;" edge="1" parent="1" source="qINuYHvKmvZRoY0IgBBN-63" target="qINuYHvKmvZRoY0IgBBN-83">
          <mxGeometry relative="1" as="geometry" />
        </mxCell>
        <mxCell id="qINuYHvKmvZRoY0IgBBN-89" style="edgeStyle=orthogonalEdgeStyle;rounded=0;orthogonalLoop=1;jettySize=auto;html=1;exitX=0.5;exitY=1;exitDx=0;exitDy=0;endArrow=none;endFill=0;entryX=1;entryY=0.25;entryDx=0;entryDy=0;" edge="1" parent="1" source="qINuYHvKmvZRoY0IgBBN-1" target="qINuYHvKmvZRoY0IgBBN-86">
          <mxGeometry relative="1" as="geometry">
            <mxPoint x="760" y="40" as="sourcePoint" />
            <mxPoint x="278" y="120" as="targetPoint" />
          </mxGeometry>
        </mxCell>
        <mxCell id="qINuYHvKmvZRoY0IgBBN-100" style="edgeStyle=orthogonalEdgeStyle;rounded=0;orthogonalLoop=1;jettySize=auto;html=1;entryX=1;entryY=0.5;entryDx=0;entryDy=0;" edge="1" parent="1" source="qINuYHvKmvZRoY0IgBBN-82" target="qINuYHvKmvZRoY0IgBBN-86">
          <mxGeometry relative="1" as="geometry">
            <Array as="points">
              <mxPoint x="680" y="475" />
              <mxPoint x="680" y="405" />
            </Array>
          </mxGeometry>
        </mxCell>
        <mxCell id="qINuYHvKmvZRoY0IgBBN-101" style="edgeStyle=orthogonalEdgeStyle;rounded=0;orthogonalLoop=1;jettySize=auto;html=1;entryX=1;entryY=0.5;entryDx=0;entryDy=0;" edge="1" parent="1" source="qINuYHvKmvZRoY0IgBBN-83" target="qINuYHvKmvZRoY0IgBBN-86">
          <mxGeometry relative="1" as="geometry">
            <Array as="points">
              <mxPoint x="680" y="505" />
              <mxPoint x="680" y="405" />
            </Array>
          </mxGeometry>
        </mxCell>
        <mxCell id="qINuYHvKmvZRoY0IgBBN-103" style="edgeStyle=orthogonalEdgeStyle;rounded=0;orthogonalLoop=1;jettySize=auto;html=1;entryX=1;entryY=0.5;entryDx=0;entryDy=0;" edge="1" parent="1" source="qINuYHvKmvZRoY0IgBBN-84" target="qINuYHvKmvZRoY0IgBBN-86">
          <mxGeometry relative="1" as="geometry">
            <Array as="points">
              <mxPoint x="680" y="535" />
              <mxPoint x="680" y="405" />
            </Array>
          </mxGeometry>
        </mxCell>
        <mxCell id="qINuYHvKmvZRoY0IgBBN-104" style="edgeStyle=orthogonalEdgeStyle;rounded=0;orthogonalLoop=1;jettySize=auto;html=1;exitX=1;exitY=0.5;exitDx=0;exitDy=0;entryX=1;entryY=0.5;entryDx=0;entryDy=0;" edge="1" parent="1" source="qINuYHvKmvZRoY0IgBBN-96" target="qINuYHvKmvZRoY0IgBBN-86">
          <mxGeometry relative="1" as="geometry">
            <Array as="points">
              <mxPoint x="680" y="565" />
              <mxPoint x="680" y="405" />
            </Array>
          </mxGeometry>
        </mxCell>
        <mxCell id="qINuYHvKmvZRoY0IgBBN-105" style="edgeStyle=orthogonalEdgeStyle;rounded=0;orthogonalLoop=1;jettySize=auto;html=1;entryX=1;entryY=0.5;entryDx=0;entryDy=0;" edge="1" parent="1" source="qINuYHvKmvZRoY0IgBBN-95" target="qINuYHvKmvZRoY0IgBBN-86">
          <mxGeometry relative="1" as="geometry">
            <Array as="points">
              <mxPoint x="680" y="595" />
              <mxPoint x="680" y="405" />
            </Array>
          </mxGeometry>
        </mxCell>
        <mxCell id="qINuYHvKmvZRoY0IgBBN-106" style="edgeStyle=orthogonalEdgeStyle;rounded=0;orthogonalLoop=1;jettySize=auto;html=1;entryX=1;entryY=0.5;entryDx=0;entryDy=0;" edge="1" parent="1" source="qINuYHvKmvZRoY0IgBBN-94" target="qINuYHvKmvZRoY0IgBBN-86">
          <mxGeometry relative="1" as="geometry">
            <mxPoint x="330" y="410" as="targetPoint" />
            <Array as="points">
              <mxPoint x="680" y="625" />
              <mxPoint x="680" y="405" />
            </Array>
          </mxGeometry>
        </mxCell>
        <mxCell id="qINuYHvKmvZRoY0IgBBN-107" style="edgeStyle=orthogonalEdgeStyle;rounded=0;orthogonalLoop=1;jettySize=auto;html=1;entryX=1;entryY=0.5;entryDx=0;entryDy=0;" edge="1" parent="1" source="qINuYHvKmvZRoY0IgBBN-93" target="qINuYHvKmvZRoY0IgBBN-86">
          <mxGeometry relative="1" as="geometry">
            <Array as="points">
              <mxPoint x="680" y="655" />
              <mxPoint x="680" y="405" />
            </Array>
          </mxGeometry>
        </mxCell>
        <mxCell id="qINuYHvKmvZRoY0IgBBN-108" style="edgeStyle=orthogonalEdgeStyle;rounded=0;orthogonalLoop=1;jettySize=auto;html=1;entryX=1;entryY=0.5;entryDx=0;entryDy=0;" edge="1" parent="1" source="qINuYHvKmvZRoY0IgBBN-92" target="qINuYHvKmvZRoY0IgBBN-86">
          <mxGeometry relative="1" as="geometry">
            <Array as="points">
              <mxPoint x="680" y="685" />
              <mxPoint x="680" y="405" />
            </Array>
          </mxGeometry>
        </mxCell>
        <mxCell id="qINuYHvKmvZRoY0IgBBN-113" value="new Health" style="swimlane;fontStyle=0;childLayout=stackLayout;horizontal=1;startSize=30;horizontalStack=0;resizeParent=1;resizeParentMax=0;resizeLast=0;collapsible=1;marginBottom=0;whiteSpace=wrap;html=1;" vertex="1" parent="1">
          <mxGeometry x="740" y="670" width="140" height="120" as="geometry" />
        </mxCell>
        <mxCell id="qINuYHvKmvZRoY0IgBBN-114" value="health" style="text;strokeColor=none;fillColor=none;align=left;verticalAlign=middle;spacingLeft=4;spacingRight=4;overflow=hidden;points=[[0,0.5],[1,0.5]];portConstraint=eastwest;rotatable=0;whiteSpace=wrap;html=1;" vertex="1" parent="qINuYHvKmvZRoY0IgBBN-113">
          <mxGeometry y="30" width="140" height="30" as="geometry" />
        </mxCell>
        <mxCell id="qINuYHvKmvZRoY0IgBBN-115" value="maxHealth" style="text;strokeColor=none;fillColor=none;align=left;verticalAlign=middle;spacingLeft=4;spacingRight=4;overflow=hidden;points=[[0,0.5],[1,0.5]];portConstraint=eastwest;rotatable=0;whiteSpace=wrap;html=1;" vertex="1" parent="qINuYHvKmvZRoY0IgBBN-113">
          <mxGeometry y="60" width="140" height="30" as="geometry" />
        </mxCell>
        <mxCell id="qINuYHvKmvZRoY0IgBBN-116" value="barrier" style="text;strokeColor=none;fillColor=none;align=left;verticalAlign=middle;spacingLeft=4;spacingRight=4;overflow=hidden;points=[[0,0.5],[1,0.5]];portConstraint=eastwest;rotatable=0;whiteSpace=wrap;html=1;" vertex="1" parent="qINuYHvKmvZRoY0IgBBN-113">
          <mxGeometry y="90" width="140" height="30" as="geometry" />
        </mxCell>
        <mxCell id="qINuYHvKmvZRoY0IgBBN-117" style="edgeStyle=orthogonalEdgeStyle;rounded=0;orthogonalLoop=1;jettySize=auto;html=1;" edge="1" parent="1" source="qINuYHvKmvZRoY0IgBBN-98" target="qINuYHvKmvZRoY0IgBBN-114">
          <mxGeometry relative="1" as="geometry" />
        </mxCell>
        <mxCell id="qINuYHvKmvZRoY0IgBBN-118" style="edgeStyle=orthogonalEdgeStyle;rounded=0;orthogonalLoop=1;jettySize=auto;html=1;" edge="1" parent="1" source="qINuYHvKmvZRoY0IgBBN-97" target="qINuYHvKmvZRoY0IgBBN-115">
          <mxGeometry relative="1" as="geometry" />
        </mxCell>
        <mxCell id="qINuYHvKmvZRoY0IgBBN-119" style="edgeStyle=orthogonalEdgeStyle;rounded=0;orthogonalLoop=1;jettySize=auto;html=1;" edge="1" parent="1" source="qINuYHvKmvZRoY0IgBBN-99" target="qINuYHvKmvZRoY0IgBBN-116">
          <mxGeometry relative="1" as="geometry" />
        </mxCell>
        <mxCell id="qINuYHvKmvZRoY0IgBBN-120" value="Invincible(static IEnumerator)" style="swimlane;fontStyle=0;childLayout=stackLayout;horizontal=1;startSize=30;horizontalStack=0;resizeParent=1;resizeParentMax=0;resizeLast=0;collapsible=1;marginBottom=0;whiteSpace=wrap;html=1;" vertex="1" parent="1">
          <mxGeometry x="470" y="840" width="230" height="120" as="geometry">
            <mxRectangle x="470" y="430" width="130" height="30" as="alternateBounds" />
          </mxGeometry>
        </mxCell>
        <mxCell id="qINuYHvKmvZRoY0IgBBN-122" value="true" style="text;strokeColor=none;fillColor=none;align=left;verticalAlign=middle;spacingLeft=4;spacingRight=4;overflow=hidden;points=[[0,0.5],[1,0.5]];portConstraint=eastwest;rotatable=0;whiteSpace=wrap;html=1;" vertex="1" parent="qINuYHvKmvZRoY0IgBBN-120">
          <mxGeometry y="30" width="230" height="30" as="geometry" />
        </mxCell>
        <mxCell id="qINuYHvKmvZRoY0IgBBN-125" value="&lt;div style=&quot;line-height: 18px;&quot;&gt;WaitForSeconds&lt;/div&gt;" style="text;strokeColor=none;fillColor=none;align=left;verticalAlign=middle;spacingLeft=4;spacingRight=4;overflow=hidden;points=[[0,0.5],[1,0.5]];portConstraint=eastwest;rotatable=0;whiteSpace=wrap;html=1;" vertex="1" parent="qINuYHvKmvZRoY0IgBBN-120">
          <mxGeometry y="60" width="230" height="30" as="geometry" />
        </mxCell>
        <mxCell id="qINuYHvKmvZRoY0IgBBN-127" value="false" style="text;strokeColor=none;fillColor=none;align=left;verticalAlign=middle;spacingLeft=4;spacingRight=4;overflow=hidden;points=[[0,0.5],[1,0.5]];portConstraint=eastwest;rotatable=0;whiteSpace=wrap;html=1;" vertex="1" parent="qINuYHvKmvZRoY0IgBBN-120">
          <mxGeometry y="90" width="230" height="30" as="geometry" />
        </mxCell>
        <mxCell id="qINuYHvKmvZRoY0IgBBN-132" value="" style="endArrow=none;html=1;rounded=0;exitX=1;exitY=0.5;exitDx=0;exitDy=0;entryX=0;entryY=0.5;entryDx=0;entryDy=0;" edge="1" parent="1" source="qINuYHvKmvZRoY0IgBBN-62" target="qINuYHvKmvZRoY0IgBBN-125">
          <mxGeometry width="50" height="50" relative="1" as="geometry">
            <mxPoint x="230" y="420" as="sourcePoint" />
            <mxPoint x="480" y="515" as="targetPoint" />
            <Array as="points">
              <mxPoint x="220" y="915" />
            </Array>
          </mxGeometry>
        </mxCell>
        <mxCell id="qINuYHvKmvZRoY0IgBBN-134" style="edgeStyle=orthogonalEdgeStyle;rounded=0;orthogonalLoop=1;jettySize=auto;html=1;entryX=0;entryY=0.5;entryDx=0;entryDy=0;startArrow=classic;startFill=1;endArrow=none;endFill=0;exitX=0.5;exitY=1;exitDx=0;exitDy=0;" edge="1" parent="1" source="qINuYHvKmvZRoY0IgBBN-86" target="qINuYHvKmvZRoY0IgBBN-127">
          <mxGeometry relative="1" as="geometry">
            <mxPoint x="300" y="430" as="sourcePoint" />
            <mxPoint x="480" y="895" as="targetPoint" />
          </mxGeometry>
        </mxCell>
        <mxCell id="qINuYHvKmvZRoY0IgBBN-135" style="edgeStyle=orthogonalEdgeStyle;rounded=0;orthogonalLoop=1;jettySize=auto;html=1;entryX=0;entryY=0.5;entryDx=0;entryDy=0;startArrow=none;startFill=0;endArrow=classic;endFill=1;exitX=0.5;exitY=1;exitDx=0;exitDy=0;" edge="1" parent="1" source="qINuYHvKmvZRoY0IgBBN-86" target="qINuYHvKmvZRoY0IgBBN-125">
          <mxGeometry relative="1" as="geometry">
            <mxPoint x="300" y="430" as="sourcePoint" />
            <mxPoint x="480" y="955" as="targetPoint" />
          </mxGeometry>
        </mxCell>
        <mxCell id="qINuYHvKmvZRoY0IgBBN-136" value="isInvincible" style="text;html=1;align=center;verticalAlign=middle;whiteSpace=wrap;rounded=0;" vertex="1" parent="1">
          <mxGeometry x="400" y="860" width="60" height="30" as="geometry" />
        </mxCell>
        <mxCell id="qINuYHvKmvZRoY0IgBBN-137" value="isInvincible" style="text;html=1;align=center;verticalAlign=middle;whiteSpace=wrap;rounded=0;" vertex="1" parent="1">
          <mxGeometry x="400" y="920" width="60" height="30" as="geometry" />
        </mxCell>
        <mxCell id="qINuYHvKmvZRoY0IgBBN-138" value="inDuration" style="text;html=1;align=center;verticalAlign=middle;whiteSpace=wrap;rounded=0;" vertex="1" parent="1">
          <mxGeometry x="400" y="890" width="60" height="30" as="geometry" />
        </mxCell>
      </root>
    </mxGraphModel>
  </diagram>
</mxfile>
